<mxfile host="app.diagrams.net" agent="Mozilla/5.0 (Windows NT 10.0; Win64; x64) AppleWebKit/537.36 (KHTML, like Gecko) Chrome/131.0.0.0 Safari/537.36" version="24.7.17">
  <diagram name="Page-1" id="TelKyrBzM3PrauyLpPAY">
    <mxGraphModel dx="1909" dy="1013" grid="1" gridSize="10" guides="1" tooltips="1" connect="1" arrows="1" fold="1" page="1" pageScale="1" pageWidth="1200" pageHeight="1600" math="0" shadow="0">
      <root>
        <mxCell id="0" />
        <mxCell id="1" parent="0" />
        <mxCell id="5n5OQ8SywGJV4VV76sb7-5" value="" style="rounded=0;whiteSpace=wrap;html=1;fillColor=none;strokeWidth=2;" vertex="1" parent="1">
          <mxGeometry x="642" y="190" width="380" height="440" as="geometry" />
        </mxCell>
        <mxCell id="5n5OQ8SywGJV4VV76sb7-39" style="edgeStyle=orthogonalEdgeStyle;rounded=0;orthogonalLoop=1;jettySize=auto;html=1;exitX=0;exitY=0.5;exitDx=0;exitDy=0;entryX=1;entryY=0.5;entryDx=0;entryDy=0;startArrow=classic;startFill=1;" edge="1" parent="1" source="5n5OQ8SywGJV4VV76sb7-2" target="5n5OQ8SywGJV4VV76sb7-9">
          <mxGeometry relative="1" as="geometry" />
        </mxCell>
        <mxCell id="5n5OQ8SywGJV4VV76sb7-63" style="edgeStyle=orthogonalEdgeStyle;rounded=0;orthogonalLoop=1;jettySize=auto;html=1;exitX=0.5;exitY=1;exitDx=0;exitDy=0;entryX=0.5;entryY=0;entryDx=0;entryDy=0;" edge="1" parent="1" source="5n5OQ8SywGJV4VV76sb7-2" target="5n5OQ8SywGJV4VV76sb7-62">
          <mxGeometry relative="1" as="geometry" />
        </mxCell>
        <mxCell id="5n5OQ8SywGJV4VV76sb7-2" value="&lt;font style=&quot;font-size: 14px;&quot; face=&quot;Comic Sans MS&quot;&gt;Engine&lt;/font&gt;" style="rounded=1;whiteSpace=wrap;html=1;" vertex="1" parent="1">
          <mxGeometry x="787" y="480" width="90" height="50" as="geometry" />
        </mxCell>
        <mxCell id="5n5OQ8SywGJV4VV76sb7-6" value="" style="rounded=0;whiteSpace=wrap;html=1;fillColor=none;strokeWidth=2;" vertex="1" parent="1">
          <mxGeometry x="140" y="160" width="380" height="390" as="geometry" />
        </mxCell>
        <mxCell id="5n5OQ8SywGJV4VV76sb7-7" value="&lt;font face=&quot;Comic Sans MS&quot; style=&quot;font-size: 16px;&quot;&gt;ndnd/fw&lt;/font&gt;&lt;div style=&quot;font-size: 16px;&quot;&gt;&lt;font face=&quot;Comic Sans MS&quot; style=&quot;font-size: 16px;&quot;&gt;(YaNFD)&lt;/font&gt;&lt;/div&gt;" style="text;html=1;align=center;verticalAlign=middle;whiteSpace=wrap;rounded=0;" vertex="1" parent="1">
          <mxGeometry x="300" y="180" width="60" height="30" as="geometry" />
        </mxCell>
        <mxCell id="5n5OQ8SywGJV4VV76sb7-8" value="&lt;font face=&quot;Comic Sans MS&quot;&gt;&lt;span style=&quot;font-size: 16px;&quot;&gt;ndnd/std&lt;/span&gt;&lt;/font&gt;&lt;div&gt;&lt;font face=&quot;Comic Sans MS&quot;&gt;&lt;span style=&quot;font-size: 16px;&quot;&gt;(go-ndn)&lt;/span&gt;&lt;/font&gt;&lt;/div&gt;" style="text;html=1;align=center;verticalAlign=middle;whiteSpace=wrap;rounded=0;" vertex="1" parent="1">
          <mxGeometry x="772" y="210" width="120" height="30" as="geometry" />
        </mxCell>
        <mxCell id="5n5OQ8SywGJV4VV76sb7-9" value="&lt;font style=&quot;font-size: 14px;&quot; face=&quot;Comic Sans MS&quot;&gt;Face&lt;/font&gt;" style="rounded=1;whiteSpace=wrap;html=1;" vertex="1" parent="1">
          <mxGeometry x="662" y="480" width="90" height="50" as="geometry" />
        </mxCell>
        <mxCell id="5n5OQ8SywGJV4VV76sb7-25" style="edgeStyle=orthogonalEdgeStyle;rounded=0;orthogonalLoop=1;jettySize=auto;html=1;exitX=0.5;exitY=0;exitDx=0;exitDy=0;entryX=0.5;entryY=1;entryDx=0;entryDy=0;startArrow=classic;startFill=1;" edge="1" parent="1" source="5n5OQ8SywGJV4VV76sb7-10" target="5n5OQ8SywGJV4VV76sb7-14">
          <mxGeometry relative="1" as="geometry" />
        </mxCell>
        <mxCell id="5n5OQ8SywGJV4VV76sb7-10" value="&lt;font style=&quot;font-size: 14px;&quot; face=&quot;Comic Sans MS&quot;&gt;Transport&lt;/font&gt;" style="rounded=1;whiteSpace=wrap;html=1;" vertex="1" parent="1">
          <mxGeometry x="410" y="480" width="90" height="50" as="geometry" />
        </mxCell>
        <mxCell id="5n5OQ8SywGJV4VV76sb7-23" style="edgeStyle=orthogonalEdgeStyle;rounded=0;orthogonalLoop=1;jettySize=auto;html=1;exitX=1;exitY=0.5;exitDx=0;exitDy=0;entryX=0;entryY=0.5;entryDx=0;entryDy=0;startArrow=classic;startFill=1;" edge="1" parent="1" source="5n5OQ8SywGJV4VV76sb7-11" target="5n5OQ8SywGJV4VV76sb7-10">
          <mxGeometry relative="1" as="geometry" />
        </mxCell>
        <mxCell id="5n5OQ8SywGJV4VV76sb7-11" value="&lt;font style=&quot;font-size: 14px;&quot; face=&quot;Comic Sans MS&quot;&gt;Link Service&lt;/font&gt;" style="rounded=1;whiteSpace=wrap;html=1;" vertex="1" parent="1">
          <mxGeometry x="285" y="480" width="90" height="50" as="geometry" />
        </mxCell>
        <mxCell id="5n5OQ8SywGJV4VV76sb7-37" style="edgeStyle=orthogonalEdgeStyle;rounded=0;orthogonalLoop=1;jettySize=auto;html=1;exitX=0;exitY=0.5;exitDx=0;exitDy=0;entryX=1;entryY=0.5;entryDx=0;entryDy=0;startArrow=classic;startFill=1;" edge="1" parent="1" source="5n5OQ8SywGJV4VV76sb7-12" target="5n5OQ8SywGJV4VV76sb7-10">
          <mxGeometry relative="1" as="geometry">
            <mxPoint x="530" y="505" as="sourcePoint" />
          </mxGeometry>
        </mxCell>
        <mxCell id="5n5OQ8SywGJV4VV76sb7-38" style="edgeStyle=orthogonalEdgeStyle;rounded=0;orthogonalLoop=1;jettySize=auto;html=1;exitX=1;exitY=0.5;exitDx=0;exitDy=0;entryX=0;entryY=0.5;entryDx=0;entryDy=0;startArrow=classic;startFill=1;" edge="1" parent="1" source="5n5OQ8SywGJV4VV76sb7-12" target="5n5OQ8SywGJV4VV76sb7-9">
          <mxGeometry relative="1" as="geometry" />
        </mxCell>
        <mxCell id="5n5OQ8SywGJV4VV76sb7-12" value="&lt;font style=&quot;font-size: 14px;&quot; face=&quot;Comic Sans MS&quot;&gt;Socket&lt;/font&gt;" style="rounded=1;whiteSpace=wrap;html=1;dashed=1;" vertex="1" parent="1">
          <mxGeometry x="532" y="490" width="90" height="30" as="geometry" />
        </mxCell>
        <mxCell id="5n5OQ8SywGJV4VV76sb7-22" style="edgeStyle=orthogonalEdgeStyle;rounded=0;orthogonalLoop=1;jettySize=auto;html=1;exitX=0.5;exitY=1;exitDx=0;exitDy=0;entryX=0.5;entryY=0;entryDx=0;entryDy=0;startArrow=classic;startFill=1;" edge="1" parent="1" source="5n5OQ8SywGJV4VV76sb7-13" target="5n5OQ8SywGJV4VV76sb7-11">
          <mxGeometry relative="1" as="geometry" />
        </mxCell>
        <mxCell id="5n5OQ8SywGJV4VV76sb7-30" style="edgeStyle=orthogonalEdgeStyle;rounded=0;orthogonalLoop=1;jettySize=auto;html=1;exitX=0.5;exitY=0;exitDx=0;exitDy=0;entryX=0.5;entryY=1;entryDx=0;entryDy=0;" edge="1" parent="1" source="5n5OQ8SywGJV4VV76sb7-13" target="5n5OQ8SywGJV4VV76sb7-15">
          <mxGeometry relative="1" as="geometry" />
        </mxCell>
        <mxCell id="5n5OQ8SywGJV4VV76sb7-32" style="edgeStyle=orthogonalEdgeStyle;rounded=0;orthogonalLoop=1;jettySize=auto;html=1;exitX=0.25;exitY=0;exitDx=0;exitDy=0;entryX=0.75;entryY=1;entryDx=0;entryDy=0;" edge="1" parent="1" source="5n5OQ8SywGJV4VV76sb7-13" target="5n5OQ8SywGJV4VV76sb7-17">
          <mxGeometry relative="1" as="geometry">
            <Array as="points">
              <mxPoint x="308" y="310" />
              <mxPoint x="238" y="310" />
            </Array>
          </mxGeometry>
        </mxCell>
        <mxCell id="5n5OQ8SywGJV4VV76sb7-33" style="edgeStyle=orthogonalEdgeStyle;rounded=0;orthogonalLoop=1;jettySize=auto;html=1;exitX=0;exitY=0.5;exitDx=0;exitDy=0;entryX=1;entryY=0.5;entryDx=0;entryDy=0;" edge="1" parent="1" source="5n5OQ8SywGJV4VV76sb7-13" target="5n5OQ8SywGJV4VV76sb7-19">
          <mxGeometry relative="1" as="geometry" />
        </mxCell>
        <mxCell id="5n5OQ8SywGJV4VV76sb7-13" value="&lt;font style=&quot;font-size: 14px;&quot; face=&quot;Comic Sans MS&quot;&gt;FwThread&lt;/font&gt;" style="rounded=1;whiteSpace=wrap;html=1;" vertex="1" parent="1">
          <mxGeometry x="285" y="330" width="90" height="50" as="geometry" />
        </mxCell>
        <mxCell id="5n5OQ8SywGJV4VV76sb7-14" value="&lt;font style=&quot;font-size: 14px;&quot; face=&quot;Comic Sans MS&quot;&gt;Mgmt&lt;/font&gt;" style="rounded=1;whiteSpace=wrap;html=1;" vertex="1" parent="1">
          <mxGeometry x="410" y="400" width="90" height="50" as="geometry" />
        </mxCell>
        <mxCell id="5n5OQ8SywGJV4VV76sb7-15" value="&lt;font style=&quot;font-size: 14px;&quot; face=&quot;Comic Sans MS&quot;&gt;PIT-CS&lt;/font&gt;" style="rounded=1;whiteSpace=wrap;html=1;" vertex="1" parent="1">
          <mxGeometry x="285" y="240" width="90" height="50" as="geometry" />
        </mxCell>
        <mxCell id="5n5OQ8SywGJV4VV76sb7-16" value="&lt;font style=&quot;font-size: 14px;&quot; face=&quot;Comic Sans MS&quot;&gt;FIB&lt;/font&gt;&lt;div&gt;&lt;font style=&quot;font-size: 14px;&quot; face=&quot;Comic Sans MS&quot;&gt;Strategy&lt;/font&gt;&lt;/div&gt;" style="rounded=1;whiteSpace=wrap;html=1;" vertex="1" parent="1">
          <mxGeometry x="400" y="240" width="90" height="50" as="geometry" />
        </mxCell>
        <mxCell id="5n5OQ8SywGJV4VV76sb7-17" value="&lt;font style=&quot;font-size: 14px;&quot; face=&quot;Comic Sans MS&quot;&gt;Strategy&lt;/font&gt;" style="rounded=1;whiteSpace=wrap;html=1;" vertex="1" parent="1">
          <mxGeometry x="170" y="240" width="90" height="50" as="geometry" />
        </mxCell>
        <mxCell id="5n5OQ8SywGJV4VV76sb7-27" style="edgeStyle=orthogonalEdgeStyle;rounded=0;orthogonalLoop=1;jettySize=auto;html=1;exitX=0.5;exitY=0;exitDx=0;exitDy=0;entryX=0.5;entryY=1;entryDx=0;entryDy=0;" edge="1" parent="1" source="5n5OQ8SywGJV4VV76sb7-18" target="5n5OQ8SywGJV4VV76sb7-16">
          <mxGeometry relative="1" as="geometry" />
        </mxCell>
        <mxCell id="5n5OQ8SywGJV4VV76sb7-18" value="&lt;font style=&quot;font-size: 14px;&quot; face=&quot;Comic Sans MS&quot;&gt;RIB&lt;/font&gt;" style="rounded=1;whiteSpace=wrap;html=1;" vertex="1" parent="1">
          <mxGeometry x="400" y="330" width="90" height="50" as="geometry" />
        </mxCell>
        <mxCell id="5n5OQ8SywGJV4VV76sb7-19" value="&lt;font style=&quot;font-size: 14px;&quot; face=&quot;Comic Sans MS&quot;&gt;DNL&lt;/font&gt;" style="rounded=1;whiteSpace=wrap;html=1;" vertex="1" parent="1">
          <mxGeometry x="170" y="330" width="90" height="50" as="geometry" />
        </mxCell>
        <mxCell id="5n5OQ8SywGJV4VV76sb7-29" style="edgeStyle=orthogonalEdgeStyle;rounded=0;orthogonalLoop=1;jettySize=auto;html=1;exitX=0.848;exitY=-0.001;exitDx=0;exitDy=0;entryX=0.25;entryY=1;entryDx=0;entryDy=0;exitPerimeter=0;" edge="1" parent="1" source="5n5OQ8SywGJV4VV76sb7-13" target="5n5OQ8SywGJV4VV76sb7-16">
          <mxGeometry relative="1" as="geometry">
            <Array as="points">
              <mxPoint x="361" y="310" />
              <mxPoint x="423" y="310" />
              <mxPoint x="423" y="290" />
            </Array>
          </mxGeometry>
        </mxCell>
        <mxCell id="5n5OQ8SywGJV4VV76sb7-41" style="edgeStyle=orthogonalEdgeStyle;rounded=0;orthogonalLoop=1;jettySize=auto;html=1;exitX=1;exitY=0.5;exitDx=0;exitDy=0;entryX=0;entryY=0.5;entryDx=0;entryDy=0;" edge="1" parent="1" source="5n5OQ8SywGJV4VV76sb7-40" target="5n5OQ8SywGJV4VV76sb7-11">
          <mxGeometry relative="1" as="geometry" />
        </mxCell>
        <mxCell id="5n5OQ8SywGJV4VV76sb7-40" value="&lt;font style=&quot;font-size: 14px;&quot; face=&quot;Comic Sans MS&quot;&gt;Face Table&lt;/font&gt;" style="rounded=1;whiteSpace=wrap;html=1;" vertex="1" parent="1">
          <mxGeometry x="170" y="480" width="90" height="50" as="geometry" />
        </mxCell>
        <mxCell id="5n5OQ8SywGJV4VV76sb7-47" style="edgeStyle=orthogonalEdgeStyle;rounded=0;orthogonalLoop=1;jettySize=auto;html=1;exitX=0.5;exitY=1;exitDx=0;exitDy=0;entryX=0.5;entryY=0;entryDx=0;entryDy=0;" edge="1" parent="1" source="5n5OQ8SywGJV4VV76sb7-42" target="5n5OQ8SywGJV4VV76sb7-2">
          <mxGeometry relative="1" as="geometry" />
        </mxCell>
        <mxCell id="5n5OQ8SywGJV4VV76sb7-48" style="edgeStyle=orthogonalEdgeStyle;rounded=0;orthogonalLoop=1;jettySize=auto;html=1;exitX=1;exitY=0.5;exitDx=0;exitDy=0;entryX=0;entryY=0.5;entryDx=0;entryDy=0;" edge="1" parent="1" source="5n5OQ8SywGJV4VV76sb7-42" target="5n5OQ8SywGJV4VV76sb7-44">
          <mxGeometry relative="1" as="geometry" />
        </mxCell>
        <mxCell id="5n5OQ8SywGJV4VV76sb7-49" style="edgeStyle=orthogonalEdgeStyle;rounded=0;orthogonalLoop=1;jettySize=auto;html=1;exitX=0;exitY=0.5;exitDx=0;exitDy=0;entryX=1;entryY=0.5;entryDx=0;entryDy=0;" edge="1" parent="1" source="5n5OQ8SywGJV4VV76sb7-42" target="5n5OQ8SywGJV4VV76sb7-46">
          <mxGeometry relative="1" as="geometry" />
        </mxCell>
        <mxCell id="5n5OQ8SywGJV4VV76sb7-58" style="edgeStyle=orthogonalEdgeStyle;rounded=0;orthogonalLoop=1;jettySize=auto;html=1;exitX=0.5;exitY=0;exitDx=0;exitDy=0;entryX=0.5;entryY=1;entryDx=0;entryDy=0;" edge="1" parent="1" source="5n5OQ8SywGJV4VV76sb7-42" target="5n5OQ8SywGJV4VV76sb7-57">
          <mxGeometry relative="1" as="geometry" />
        </mxCell>
        <mxCell id="5n5OQ8SywGJV4VV76sb7-42" value="&lt;font style=&quot;font-size: 14px;&quot; face=&quot;Comic Sans MS&quot;&gt;Object Client&lt;/font&gt;" style="rounded=1;whiteSpace=wrap;html=1;" vertex="1" parent="1">
          <mxGeometry x="787" y="400" width="90" height="50" as="geometry" />
        </mxCell>
        <mxCell id="5n5OQ8SywGJV4VV76sb7-71" style="edgeStyle=orthogonalEdgeStyle;rounded=0;orthogonalLoop=1;jettySize=auto;html=1;exitX=1;exitY=0.5;exitDx=0;exitDy=0;entryX=0;entryY=0.5;entryDx=0;entryDy=0;startArrow=classic;startFill=1;dashed=1;" edge="1" parent="1" source="5n5OQ8SywGJV4VV76sb7-44" target="5n5OQ8SywGJV4VV76sb7-69">
          <mxGeometry relative="1" as="geometry" />
        </mxCell>
        <mxCell id="5n5OQ8SywGJV4VV76sb7-44" value="&lt;div&gt;&lt;span style=&quot;font-size: 14px; font-family: &amp;quot;Comic Sans MS&amp;quot;; background-color: initial;&quot;&gt;Store&lt;/span&gt;&lt;/div&gt;" style="rounded=1;whiteSpace=wrap;html=1;" vertex="1" parent="1">
          <mxGeometry x="912" y="400" width="90" height="50" as="geometry" />
        </mxCell>
        <mxCell id="5n5OQ8SywGJV4VV76sb7-46" value="&lt;font style=&quot;font-size: 14px;&quot; face=&quot;Comic Sans MS&quot;&gt;Segment Fetcher&lt;/font&gt;" style="rounded=1;whiteSpace=wrap;html=1;" vertex="1" parent="1">
          <mxGeometry x="662" y="400" width="90" height="50" as="geometry" />
        </mxCell>
        <mxCell id="5n5OQ8SywGJV4VV76sb7-51" style="edgeStyle=orthogonalEdgeStyle;rounded=0;orthogonalLoop=1;jettySize=auto;html=1;exitX=0;exitY=0.5;exitDx=0;exitDy=0;entryX=1;entryY=0.5;entryDx=0;entryDy=0;" edge="1" parent="1" source="5n5OQ8SywGJV4VV76sb7-50" target="5n5OQ8SywGJV4VV76sb7-2">
          <mxGeometry relative="1" as="geometry" />
        </mxCell>
        <mxCell id="5n5OQ8SywGJV4VV76sb7-50" value="&lt;font style=&quot;font-size: 14px;&quot; face=&quot;Comic Sans MS&quot;&gt;Sync&lt;/font&gt;" style="rounded=1;whiteSpace=wrap;html=1;" vertex="1" parent="1">
          <mxGeometry x="912" y="490" width="90" height="30" as="geometry" />
        </mxCell>
        <mxCell id="5n5OQ8SywGJV4VV76sb7-53" style="edgeStyle=orthogonalEdgeStyle;rounded=0;orthogonalLoop=1;jettySize=auto;html=1;exitX=0.5;exitY=1;exitDx=0;exitDy=0;entryX=0.5;entryY=0;entryDx=0;entryDy=0;" edge="1" parent="1" source="5n5OQ8SywGJV4VV76sb7-52" target="5n5OQ8SywGJV4VV76sb7-44">
          <mxGeometry relative="1" as="geometry" />
        </mxCell>
        <mxCell id="5n5OQ8SywGJV4VV76sb7-55" style="edgeStyle=orthogonalEdgeStyle;rounded=0;orthogonalLoop=1;jettySize=auto;html=1;exitX=0.5;exitY=0;exitDx=0;exitDy=0;entryX=0.5;entryY=1;entryDx=0;entryDy=0;" edge="1" parent="1" source="5n5OQ8SywGJV4VV76sb7-52" target="5n5OQ8SywGJV4VV76sb7-54">
          <mxGeometry relative="1" as="geometry" />
        </mxCell>
        <mxCell id="5n5OQ8SywGJV4VV76sb7-52" value="&lt;font style=&quot;font-size: 14px;&quot; face=&quot;Comic Sans MS&quot;&gt;KeyChain&lt;/font&gt;" style="rounded=1;whiteSpace=wrap;html=1;" vertex="1" parent="1">
          <mxGeometry x="912" y="324" width="90" height="50" as="geometry" />
        </mxCell>
        <mxCell id="5n5OQ8SywGJV4VV76sb7-54" value="&lt;font style=&quot;font-size: 14px;&quot; face=&quot;Comic Sans MS&quot;&gt;Signer&lt;/font&gt;" style="rounded=1;whiteSpace=wrap;html=1;" vertex="1" parent="1">
          <mxGeometry x="912" y="269" width="90" height="30" as="geometry" />
        </mxCell>
        <mxCell id="5n5OQ8SywGJV4VV76sb7-59" style="edgeStyle=orthogonalEdgeStyle;rounded=0;orthogonalLoop=1;jettySize=auto;html=1;exitX=1;exitY=0.5;exitDx=0;exitDy=0;entryX=0;entryY=0.5;entryDx=0;entryDy=0;" edge="1" parent="1" source="5n5OQ8SywGJV4VV76sb7-57" target="5n5OQ8SywGJV4VV76sb7-52">
          <mxGeometry relative="1" as="geometry" />
        </mxCell>
        <mxCell id="5n5OQ8SywGJV4VV76sb7-61" style="edgeStyle=orthogonalEdgeStyle;rounded=0;orthogonalLoop=1;jettySize=auto;html=1;exitX=0.5;exitY=0;exitDx=0;exitDy=0;entryX=0.5;entryY=1;entryDx=0;entryDy=0;" edge="1" parent="1" source="5n5OQ8SywGJV4VV76sb7-57" target="5n5OQ8SywGJV4VV76sb7-60">
          <mxGeometry relative="1" as="geometry" />
        </mxCell>
        <mxCell id="5n5OQ8SywGJV4VV76sb7-57" value="&lt;font style=&quot;font-size: 14px;&quot; face=&quot;Comic Sans MS&quot;&gt;Security Config&lt;/font&gt;" style="rounded=1;whiteSpace=wrap;html=1;" vertex="1" parent="1">
          <mxGeometry x="787" y="324" width="90" height="50" as="geometry" />
        </mxCell>
        <mxCell id="5n5OQ8SywGJV4VV76sb7-60" value="&lt;font style=&quot;font-size: 14px;&quot; face=&quot;Comic Sans MS&quot;&gt;Schema&lt;/font&gt;" style="rounded=1;whiteSpace=wrap;html=1;" vertex="1" parent="1">
          <mxGeometry x="787" y="269" width="90" height="30" as="geometry" />
        </mxCell>
        <mxCell id="5n5OQ8SywGJV4VV76sb7-62" value="&lt;font style=&quot;font-size: 14px;&quot; face=&quot;Comic Sans MS&quot;&gt;Encoding&lt;/font&gt;" style="rounded=1;whiteSpace=wrap;html=1;" vertex="1" parent="1">
          <mxGeometry x="787" y="560" width="90" height="50" as="geometry" />
        </mxCell>
        <mxCell id="5n5OQ8SywGJV4VV76sb7-93" style="edgeStyle=orthogonalEdgeStyle;rounded=0;orthogonalLoop=1;jettySize=auto;html=1;exitX=1;exitY=0.5;exitDx=0;exitDy=0;entryX=0;entryY=0.5;entryDx=0;entryDy=0;endArrow=openThin;endFill=0;" edge="1" parent="1" source="5n5OQ8SywGJV4VV76sb7-64" target="5n5OQ8SywGJV4VV76sb7-62">
          <mxGeometry relative="1" as="geometry" />
        </mxCell>
        <mxCell id="5n5OQ8SywGJV4VV76sb7-64" value="&lt;font style=&quot;font-size: 14px;&quot; face=&quot;Comic Sans MS&quot;&gt;Codegen&lt;/font&gt;" style="rounded=1;whiteSpace=wrap;html=1;" vertex="1" parent="1">
          <mxGeometry x="662" y="560" width="90" height="50" as="geometry" />
        </mxCell>
        <mxCell id="5n5OQ8SywGJV4VV76sb7-70" style="edgeStyle=orthogonalEdgeStyle;rounded=0;orthogonalLoop=1;jettySize=auto;html=1;exitX=0;exitY=0.5;exitDx=0;exitDy=0;entryX=1;entryY=0.5;entryDx=0;entryDy=0;startArrow=classic;startFill=1;dashed=1;" edge="1" parent="1" source="5n5OQ8SywGJV4VV76sb7-68" target="5n5OQ8SywGJV4VV76sb7-52">
          <mxGeometry relative="1" as="geometry" />
        </mxCell>
        <mxCell id="5n5OQ8SywGJV4VV76sb7-68" value="&lt;font style=&quot;font-size: 14px;&quot; face=&quot;Comic Sans MS&quot;&gt;Disk&lt;/font&gt;" style="rounded=1;whiteSpace=wrap;html=1;dashed=1;" vertex="1" parent="1">
          <mxGeometry x="1042" y="336" width="90" height="26" as="geometry" />
        </mxCell>
        <mxCell id="5n5OQ8SywGJV4VV76sb7-69" value="&lt;font style=&quot;font-size: 14px;&quot; face=&quot;Comic Sans MS&quot;&gt;Disk&lt;/font&gt;" style="rounded=1;whiteSpace=wrap;html=1;dashed=1;" vertex="1" parent="1">
          <mxGeometry x="1042" y="412" width="90" height="26" as="geometry" />
        </mxCell>
        <mxCell id="5n5OQ8SywGJV4VV76sb7-72" value="" style="rounded=0;whiteSpace=wrap;html=1;fillColor=none;strokeWidth=2;" vertex="1" parent="1">
          <mxGeometry x="192" y="600" width="380" height="340" as="geometry" />
        </mxCell>
        <mxCell id="5n5OQ8SywGJV4VV76sb7-73" value="&lt;font face=&quot;Comic Sans MS&quot;&gt;&lt;span style=&quot;font-size: 16px;&quot;&gt;ndnd/dv&lt;/span&gt;&lt;/font&gt;&lt;div&gt;&lt;font face=&quot;Comic Sans MS&quot;&gt;&lt;span style=&quot;font-size: 16px;&quot;&gt;(ndn-dv)&lt;/span&gt;&lt;/font&gt;&lt;/div&gt;" style="text;html=1;align=center;verticalAlign=middle;whiteSpace=wrap;rounded=0;" vertex="1" parent="1">
          <mxGeometry x="322" y="620" width="120" height="30" as="geometry" />
        </mxCell>
        <mxCell id="5n5OQ8SywGJV4VV76sb7-88" style="edgeStyle=orthogonalEdgeStyle;rounded=0;orthogonalLoop=1;jettySize=auto;html=1;exitX=0.25;exitY=1;exitDx=0;exitDy=0;entryX=0.5;entryY=0;entryDx=0;entryDy=0;" edge="1" parent="1" source="5n5OQ8SywGJV4VV76sb7-74" target="5n5OQ8SywGJV4VV76sb7-75">
          <mxGeometry relative="1" as="geometry">
            <Array as="points">
              <mxPoint x="282" y="790" />
              <mxPoint x="257" y="790" />
            </Array>
          </mxGeometry>
        </mxCell>
        <mxCell id="5n5OQ8SywGJV4VV76sb7-89" style="edgeStyle=orthogonalEdgeStyle;rounded=0;orthogonalLoop=1;jettySize=auto;html=1;exitX=0.75;exitY=1;exitDx=0;exitDy=0;entryX=0.5;entryY=0;entryDx=0;entryDy=0;" edge="1" parent="1" source="5n5OQ8SywGJV4VV76sb7-74" target="5n5OQ8SywGJV4VV76sb7-76">
          <mxGeometry relative="1" as="geometry">
            <Array as="points">
              <mxPoint x="328" y="790" />
              <mxPoint x="382" y="790" />
            </Array>
          </mxGeometry>
        </mxCell>
        <mxCell id="5n5OQ8SywGJV4VV76sb7-74" value="&lt;font style=&quot;font-size: 14px;&quot; face=&quot;Comic Sans MS&quot;&gt;Advert Module&lt;/font&gt;" style="rounded=1;whiteSpace=wrap;html=1;" vertex="1" parent="1">
          <mxGeometry x="260" y="730" width="90" height="50" as="geometry" />
        </mxCell>
        <mxCell id="5n5OQ8SywGJV4VV76sb7-75" value="&lt;font style=&quot;font-size: 14px;&quot; face=&quot;Comic Sans MS&quot;&gt;Neighbor Table&lt;/font&gt;" style="rounded=1;whiteSpace=wrap;html=1;" vertex="1" parent="1">
          <mxGeometry x="212" y="810" width="90" height="50" as="geometry" />
        </mxCell>
        <mxCell id="5n5OQ8SywGJV4VV76sb7-87" style="edgeStyle=orthogonalEdgeStyle;rounded=0;orthogonalLoop=1;jettySize=auto;html=1;exitX=1;exitY=0.5;exitDx=0;exitDy=0;entryX=0;entryY=0.5;entryDx=0;entryDy=0;" edge="1" parent="1" source="5n5OQ8SywGJV4VV76sb7-76" target="5n5OQ8SywGJV4VV76sb7-78">
          <mxGeometry relative="1" as="geometry" />
        </mxCell>
        <mxCell id="5n5OQ8SywGJV4VV76sb7-76" value="&lt;font style=&quot;font-size: 14px;&quot; face=&quot;Comic Sans MS&quot;&gt;RIB&lt;/font&gt;" style="rounded=1;whiteSpace=wrap;html=1;" vertex="1" parent="1">
          <mxGeometry x="337" y="810" width="90" height="50" as="geometry" />
        </mxCell>
        <mxCell id="5n5OQ8SywGJV4VV76sb7-85" style="edgeStyle=orthogonalEdgeStyle;rounded=0;orthogonalLoop=1;jettySize=auto;html=1;exitX=1;exitY=0.5;exitDx=0;exitDy=0;entryX=0.5;entryY=1;entryDx=0;entryDy=0;" edge="1" parent="1" source="5n5OQ8SywGJV4VV76sb7-77" target="5n5OQ8SywGJV4VV76sb7-80">
          <mxGeometry relative="1" as="geometry" />
        </mxCell>
        <mxCell id="5n5OQ8SywGJV4VV76sb7-86" style="edgeStyle=orthogonalEdgeStyle;rounded=0;orthogonalLoop=1;jettySize=auto;html=1;exitX=0.5;exitY=1;exitDx=0;exitDy=0;entryX=0.5;entryY=0;entryDx=0;entryDy=0;" edge="1" parent="1" source="5n5OQ8SywGJV4VV76sb7-77" target="5n5OQ8SywGJV4VV76sb7-78">
          <mxGeometry relative="1" as="geometry">
            <Array as="points">
              <mxPoint x="445" y="790" />
              <mxPoint x="507" y="790" />
            </Array>
          </mxGeometry>
        </mxCell>
        <mxCell id="5n5OQ8SywGJV4VV76sb7-77" value="&lt;font style=&quot;font-size: 14px;&quot; face=&quot;Comic Sans MS&quot;&gt;Prefix&lt;/font&gt;&lt;div&gt;&lt;font style=&quot;font-size: 14px;&quot; face=&quot;Comic Sans MS&quot;&gt;Table&lt;/font&gt;&lt;/div&gt;" style="rounded=1;whiteSpace=wrap;html=1;" vertex="1" parent="1">
          <mxGeometry x="400" y="730" width="90" height="50" as="geometry" />
        </mxCell>
        <mxCell id="5n5OQ8SywGJV4VV76sb7-90" style="edgeStyle=orthogonalEdgeStyle;rounded=0;orthogonalLoop=1;jettySize=auto;html=1;exitX=0.5;exitY=1;exitDx=0;exitDy=0;entryX=0.5;entryY=0;entryDx=0;entryDy=0;" edge="1" parent="1" source="5n5OQ8SywGJV4VV76sb7-78" target="5n5OQ8SywGJV4VV76sb7-82">
          <mxGeometry relative="1" as="geometry" />
        </mxCell>
        <mxCell id="5n5OQ8SywGJV4VV76sb7-78" value="&lt;font style=&quot;font-size: 14px;&quot; face=&quot;Comic Sans MS&quot;&gt;FIB&lt;/font&gt;" style="rounded=1;whiteSpace=wrap;html=1;" vertex="1" parent="1">
          <mxGeometry x="462" y="810" width="90" height="50" as="geometry" />
        </mxCell>
        <mxCell id="5n5OQ8SywGJV4VV76sb7-80" value="&lt;font face=&quot;Comic Sans MS&quot;&gt;&lt;span style=&quot;font-size: 14px;&quot;&gt;SVS&lt;/span&gt;&lt;/font&gt;" style="rounded=1;whiteSpace=wrap;html=1;dashed=1;" vertex="1" parent="1">
          <mxGeometry x="472" y="680" width="90" height="30" as="geometry" />
        </mxCell>
        <mxCell id="5n5OQ8SywGJV4VV76sb7-83" style="edgeStyle=orthogonalEdgeStyle;rounded=0;orthogonalLoop=1;jettySize=auto;html=1;exitX=0.25;exitY=1;exitDx=0;exitDy=0;entryX=0.5;entryY=0;entryDx=0;entryDy=0;" edge="1" parent="1" source="5n5OQ8SywGJV4VV76sb7-81" target="5n5OQ8SywGJV4VV76sb7-74">
          <mxGeometry relative="1" as="geometry">
            <Array as="points">
              <mxPoint x="360" y="710" />
              <mxPoint x="305" y="710" />
            </Array>
          </mxGeometry>
        </mxCell>
        <mxCell id="5n5OQ8SywGJV4VV76sb7-84" style="edgeStyle=orthogonalEdgeStyle;rounded=0;orthogonalLoop=1;jettySize=auto;html=1;exitX=0.75;exitY=1;exitDx=0;exitDy=0;entryX=0.5;entryY=0;entryDx=0;entryDy=0;" edge="1" parent="1" source="5n5OQ8SywGJV4VV76sb7-81" target="5n5OQ8SywGJV4VV76sb7-77">
          <mxGeometry relative="1" as="geometry">
            <Array as="points">
              <mxPoint x="404" y="710" />
              <mxPoint x="445" y="710" />
            </Array>
          </mxGeometry>
        </mxCell>
        <mxCell id="5n5OQ8SywGJV4VV76sb7-81" value="&lt;font style=&quot;font-size: 14px;&quot; face=&quot;Comic Sans MS&quot;&gt;Router&lt;/font&gt;" style="rounded=1;whiteSpace=wrap;html=1;" vertex="1" parent="1">
          <mxGeometry x="337" y="670" width="90" height="30" as="geometry" />
        </mxCell>
        <mxCell id="5n5OQ8SywGJV4VV76sb7-82" value="&lt;font face=&quot;Comic Sans MS&quot;&gt;&lt;span style=&quot;font-size: 14px;&quot;&gt;NFD Mgmt&lt;/span&gt;&lt;/font&gt;" style="rounded=1;whiteSpace=wrap;html=1;" vertex="1" parent="1">
          <mxGeometry x="462" y="890" width="90" height="30" as="geometry" />
        </mxCell>
      </root>
    </mxGraphModel>
  </diagram>
</mxfile>
